<svg xmlns="http://www.w3.org/2000/svg" width="720" height="356" font-family="ui-sans-serif,system-ui,sans-serif" font-size="13">
<text x="250" y="26" font-size="15" font-weight="600" fill="#111827">Shieldstral: which forged sections rebind the target (n=75)</text>
<line x1="250.0" y1="48" x2="250.0" y2="326" stroke="#e5e7eb"/>
<text x="250.0" y="344" text-anchor="middle" fill="#6b7280">0%</text>
<line x1="352.5" y1="48" x2="352.5" y2="326" stroke="#e5e7eb"/>
<text x="352.5" y="344" text-anchor="middle" fill="#6b7280">25%</text>
<line x1="455.0" y1="48" x2="455.0" y2="326" stroke="#e5e7eb"/>
<text x="455.0" y="344" text-anchor="middle" fill="#6b7280">50%</text>
<line x1="557.5" y1="48" x2="557.5" y2="326" stroke="#e5e7eb"/>
<text x="557.5" y="344" text-anchor="middle" fill="#6b7280">75%</text>
<line x1="660.0" y1="48" x2="660.0" y2="326" stroke="#e5e7eb"/>
<text x="660.0" y="344" text-anchor="middle" fill="#6b7280">100%</text>
<text x="240" y="75.0" text-anchor="end" fill="#111827">none</text>
<rect x="250" y="63.0" width="0.0" height="16" fill="#6b7280" opacity="0.85" rx="2"/>
<line x1="250.0" y1="71.0" x2="270.0" y2="71.0" stroke="#111827"/>
<line x1="250.0" y1="67.0" x2="250.0" y2="75.0" stroke="#111827"/>
<line x1="270.0" y1="67.0" x2="270.0" y2="75.0" stroke="#111827"/>
<text x="278.0" y="75.0" fill="#111827">0% (0/75)</text>
<text x="240" y="105.0" text-anchor="end" fill="#111827">sentence_bare</text>
<rect x="250" y="93.0" width="0.0" height="16" fill="#6b7280" opacity="0.85" rx="2"/>
<line x1="250.0" y1="101.0" x2="270.0" y2="101.0" stroke="#111827"/>
<line x1="250.0" y1="97.0" x2="250.0" y2="105.0" stroke="#111827"/>
<line x1="270.0" y1="97.0" x2="270.0" y2="105.0" stroke="#111827"/>
<text x="278.0" y="105.0" fill="#111827">0% (0/75)</text>
<text x="240" y="135.0" text-anchor="end" fill="#111827">authority_note</text>
<rect x="250" y="123.0" width="0.0" height="16" fill="#6b7280" opacity="0.85" rx="2"/>
<line x1="250.0" y1="131.0" x2="270.0" y2="131.0" stroke="#111827"/>
<line x1="250.0" y1="127.0" x2="250.0" y2="135.0" stroke="#111827"/>
<line x1="270.0" y1="127.0" x2="270.0" y2="135.0" stroke="#111827"/>
<text x="278.0" y="135.0" fill="#111827">0% (0/75)</text>
<text x="240" y="165.0" text-anchor="end" fill="#111827">benign_tail</text>
<rect x="250" y="153.0" width="0.0" height="16" fill="#6b7280" opacity="0.85" rx="2"/>
<line x1="250.0" y1="161.0" x2="270.0" y2="161.0" stroke="#111827"/>
<line x1="250.0" y1="157.0" x2="250.0" y2="165.0" stroke="#111827"/>
<line x1="270.0" y1="157.0" x2="270.0" y2="165.0" stroke="#111827"/>
<text x="278.0" y="165.0" fill="#111827">0% (0/75)</text>
<text x="240" y="195.0" text-anchor="end" fill="#111827">instruct_only</text>
<rect x="250" y="183.0" width="0.0" height="16" fill="#dc2626" opacity="0.85" rx="2"/>
<line x1="250.0" y1="191.0" x2="270.0" y2="191.0" stroke="#111827"/>
<line x1="250.0" y1="187.0" x2="250.0" y2="195.0" stroke="#111827"/>
<line x1="270.0" y1="187.0" x2="270.0" y2="195.0" stroke="#111827"/>
<text x="278.0" y="195.0" fill="#111827">0% (0/75)</text>
<text x="240" y="225.0" text-anchor="end" fill="#111827">instruct_query</text>
<rect x="250" y="213.0" width="0.0" height="16" fill="#dc2626" opacity="0.85" rx="2"/>
<line x1="250.0" y1="221.0" x2="270.0" y2="221.0" stroke="#111827"/>
<line x1="250.0" y1="217.0" x2="250.0" y2="225.0" stroke="#111827"/>
<line x1="270.0" y1="217.0" x2="270.0" y2="225.0" stroke="#111827"/>
<text x="278.0" y="225.0" fill="#111827">0% (0/75)</text>
<text x="240" y="255.0" text-anchor="end" fill="#111827">doc_only</text>
<rect x="250" y="243.0" width="38.3" height="16" fill="#dc2626" opacity="0.85" rx="2"/>
<line x1="268.8" y1="251.0" x2="323.9" y2="251.0" stroke="#111827"/>
<line x1="268.8" y1="247.0" x2="268.8" y2="255.0" stroke="#111827"/>
<line x1="323.9" y1="247.0" x2="323.9" y2="255.0" stroke="#111827"/>
<text x="331.9" y="255.0" fill="#111827">9% (7/75)</text>
<text x="240" y="285.0" text-anchor="end" fill="#111827">query_doc</text>
<rect x="250" y="273.0" width="410.0" height="16" fill="#dc2626" opacity="0.85" rx="2"/>
<line x1="640.0" y1="281.0" x2="660.0" y2="281.0" stroke="#111827"/>
<line x1="640.0" y1="277.0" x2="640.0" y2="285.0" stroke="#111827"/>
<line x1="660.0" y1="277.0" x2="660.0" y2="285.0" stroke="#111827"/>
<text x="668.0" y="285.0" fill="#111827">100% (75/75)</text>
<text x="240" y="315.0" text-anchor="end" fill="#111827">full_triple</text>
<rect x="250" y="303.0" width="377.2" height="16" fill="#dc2626" opacity="0.85" rx="2"/>
<line x1="592.9" y1="311.0" x2="644.8" y2="311.0" stroke="#111827"/>
<line x1="592.9" y1="307.0" x2="592.9" y2="315.0" stroke="#111827"/>
<line x1="644.8" y1="307.0" x2="644.8" y2="315.0" stroke="#111827"/>
<text x="652.8" y="315.0" fill="#111827">92% (69/75)</text>
</svg>